<svg xmlns="http://www.w3.org/2000/svg" viewBox="0 0 477.973 238.367" width="477.973" height="238.367"><g stroke-linecap="round" stroke="rgb(241 245 249)" stroke-width="2" fill="none"><path d="M188.733 162.602c-10.79.33-46.5 9.35-64.98 1.08-18.49-8.27-40.93-34.22-45.95-50.7-5.02-16.48 5.76-39.72 15.83-48.16 10.06-8.44 35.17-10.13 44.56-2.49 9.4 7.65 14.21 35.82 11.79 48.38-2.43 12.56-10.78 22.58-26.34 27-15.56 4.42-49.79 5.99-67.02-.48-17.23-6.46-28.6-22.54-36.37-38.3-7.77-15.77-10.5-41.46-10.25-56.29.24-14.82 9.57-27.04 11.72-32.64m165.57 152.05c-10.9-.01-45.93 7.94-64.32-.07-18.39-8.01-41.19-31.99-46.02-48.01-4.82-16.02 6.56-39.58 17.08-48.12 10.52-8.55 37.02-10.44 46.05-3.16 9.04 7.27 11.33 34.54 8.16 46.81-3.17 12.26-11.7 22.2-27.16 26.76-15.47 4.56-48.63 6.5-65.61.61-16.98-5.9-28.83-20.21-36.29-35.98-7.46-15.77-8.91-43.68-8.48-58.66.42-14.97 9.19-25.52 11.03-31.21"/><path d="M21.313 28.832c.29-5.62-1.27-9.84.21-18.64m-.94 18c-.41-4.97 1.12-10.46 1.06-17.11"/><path d="M10.593 23.632c3.33-4.16 4.79-6.91 10.93-13.44m-11.66 12.8c2.78-3.41 7.46-7.38 11.78-11.91"/></g><g font-size="28" fill="rgb(241 245 249)"><text y="24.25" transform="translate(199.973 87.367)">Click here to </text><text y="59.5" transform="translate(199.973 87.367)">select a directory</text><text y="94.75" transform="translate(199.973 87.367)">which contains some</text><text y="130" transform="translate(199.973 87.367)">svg file.</text></g></svg>
